<?xml version="1.0" encoding="UTF-8" standalone="no"?>
<!-- Created with Inkscape (http://www.inkscape.org/) -->

<svg
   version="1.1"
   id="svg2"
   xml:space="preserve"
   width="822.10669"
   height="350.06668"
   viewBox="0 0 822.10669 350.06668"
   sodipodi:docname="banco-interamericano-de-desenvolvimento-seeklogo.com.eps"
   xmlns:inkscape="http://www.inkscape.org/namespaces/inkscape"
   xmlns:sodipodi="http://sodipodi.sourceforge.net/DTD/sodipodi-0.dtd"
   xmlns="http://www.w3.org/2000/svg"
   xmlns:svg="http://www.w3.org/2000/svg"><defs
     id="defs6" /><sodipodi:namedview
     id="namedview4"
     borderopacity="1.0"
     inkscape:pageshadow="2"
     inkscape:pageopacity="0.0"
     inkscape:pagecheckerboard="0" /><g
     id="g8"
     inkscape:groupmode="layer"
     inkscape:label="ink_ext_XXXXXX"
     transform="matrix(1.3333333,0,0,-1.3333333,0,350.06667)"><g
       id="g10"
       transform="scale(0.1)"><path
         d="m 2646.06,413.539 c 30.11,0 48.39,11.832 48.39,34.41 v 0.719 c 0,21.141 -16.85,33.691 -51.61,33.691 h -69.9 v -68.82 z m -12.9,106.09 c 28.31,0 47.31,11.121 47.31,34.051 v 0.718 c 0,19.711 -15.77,31.903 -44.08,31.903 h -63.45 v -66.672 z m -103.58,105.742 h 112.54 c 28.68,0 51.25,-7.891 65.59,-22.223 11.11,-11.117 16.85,-24.73 16.85,-41.578 v -0.718 c 0,-30.102 -17.21,-46.243 -35.84,-55.911 29.39,-10.031 49.82,-26.89 49.82,-60.929 v -0.731 c 0,-44.801 -36.92,-68.801 -92.84,-68.801 h -116.12 v 250.891"
         style="fill:#ffffff;fill-opacity:1;fill-rule:nonzero;stroke:none"
         id="path12" /><path
         d="m 2885.86,453.68 c -11.1,4.308 -26.52,7.531 -43.36,7.531 -27.25,0 -43.37,-11.109 -43.37,-29.391 v -0.718 c 0,-17.911 16.12,-27.954 36.55,-27.954 28.68,0 50.18,16.133 50.18,39.782 z m -1.07,-79.2 v 23.29 c -12.9,-15.411 -32.62,-27.239 -61.29,-27.239 -35.84,0 -67.39,20.43 -67.39,58.418 v 0.723 c 0,41.93 32.62,62.008 76.71,62.008 22.94,0 37.63,-3.231 52.33,-7.891 v 3.59 c 0,26.16 -16.49,40.492 -46.6,40.492 -21.14,0 -36.91,-4.641 -54.12,-11.82 l -11.83,34.769 c 20.79,9.321 41.22,15.77 72.05,15.77 55.91,0 83.15,-29.399 83.15,-79.93 V 374.48 h -43.01"
         style="fill:#ffffff;fill-opacity:1;fill-rule:nonzero;stroke:none"
         id="path14" /><path
         d="m 2965.1,563.711 h 43.37 v -29.383 c 12.18,17.922 29.75,33.332 59.14,33.332 42.65,0 67.38,-28.672 67.38,-72.75 V 374.48 h -43.37 V 482 c 0,29.391 -14.69,46.238 -40.5,46.238 -25.09,0 -42.65,-17.57 -42.65,-46.957 V 374.48 h -43.37 v 189.231"
         style="fill:#ffffff;fill-opacity:1;fill-rule:nonzero;stroke:none"
         id="path16" /><path
         d="m 3162.61,468.02 v 0.71 c 0,53.77 41.57,98.93 98.21,98.93 35.84,0 58.06,-13.262 75.63,-32.621 l -26.89,-29.019 c -13.26,13.968 -27.24,23.652 -49.1,23.652 -31.54,0 -54.48,-27.254 -54.48,-60.211 v -0.731 c 0,-33.691 23.3,-60.921 56.63,-60.921 20.43,0 35.49,9.671 49.1,23.66 l 26.17,-25.821 c -18.63,-20.777 -40.51,-35.476 -77.42,-35.476 -56.28,0 -97.85,44.09 -97.85,97.848"
         style="fill:#ffffff;fill-opacity:1;fill-rule:nonzero;stroke:none"
         id="path18" /><path
         d="m 3506.01,468.02 v 0.71 c 0,33.34 -24.03,60.942 -58.07,60.942 -34.76,0 -56.99,-27.254 -56.99,-60.211 v -0.731 c 0,-32.968 24.01,-60.921 57.71,-60.921 35.12,0 57.35,27.589 57.35,60.211 z m -158.43,0 v 0.71 c 0,54.122 43.02,98.93 101.08,98.93 58.06,0 100.72,-44.082 100.72,-98.199 v -0.731 c 0,-53.761 -43.02,-98.558 -101.44,-98.558 -57.72,0 -100.36,44.09 -100.36,97.848"
         style="fill:#ffffff;fill-opacity:1;fill-rule:nonzero;stroke:none"
         id="path20" /><path
         d="m 3679.86,625.371 h 44.1 V 374.48 h -44.1 v 250.891"
         style="fill:#ffffff;fill-opacity:1;fill-rule:nonzero;stroke:none"
         id="path22" /><path
         d="m 3771.63,563.711 h 43.36 v -29.383 c 12.19,17.922 29.76,33.332 59.14,33.332 42.66,0 67.38,-28.672 67.38,-72.75 V 374.48 h -43.36 V 482 c 0,29.391 -14.69,46.238 -40.5,46.238 -25.09,0 -42.66,-17.57 -42.66,-46.957 V 374.48 h -43.36 v 189.231"
         style="fill:#ffffff;fill-opacity:1;fill-rule:nonzero;stroke:none"
         id="path24" /><path
         d="m 3988.5,426.801 v 99.648 h -24.02 v 37.262 h 24.02 v 51.98 h 43.37 v -51.98 h 50.89 v -37.262 h -50.89 v -92.828 c 0,-16.859 8.6,-23.672 23.3,-23.672 9.67,0 18.28,2.16 26.87,6.461 v -35.488 c -10.74,-6.094 -22.93,-9.684 -39.06,-9.684 -31.9,0 -54.48,13.981 -54.48,55.563"
         style="fill:#ffffff;fill-opacity:1;fill-rule:nonzero;stroke:none"
         id="path26" /><path
         d="m 4236.53,482.359 c -2.86,27.961 -19.35,49.821 -48.02,49.821 -26.53,0 -45.16,-20.43 -49.11,-49.821 z m -140.13,-13.98 v 0.711 c 0,54.14 38.35,98.57 92.47,98.57 60.21,0 90.68,-47.308 90.68,-101.789 0,-3.941 -0.36,-7.883 -0.71,-12.191 h -139.08 c 4.66,-30.828 26.52,-48.032 54.49,-48.032 21.14,0 36.19,7.891 51.25,22.59 l 25.45,-22.59 c -17.92,-21.507 -42.66,-35.476 -77.42,-35.476 -54.85,0 -97.13,39.777 -97.13,98.207"
         style="fill:#ffffff;fill-opacity:1;fill-rule:nonzero;stroke:none"
         id="path28" /><path
         d="m 4308.96,563.711 h 43.37 V 521.07 c 11.82,28.309 33.7,47.66 67.03,46.239 V 521.43 h -2.51 c -37.99,0 -64.52,-24.731 -64.52,-74.91 v -72.04 h -43.37 v 189.231"
         style="fill:#ffffff;fill-opacity:1;fill-rule:nonzero;stroke:none"
         id="path30" /><path
         d="m 4550.55,453.68 c -11.11,4.308 -26.53,7.531 -43.37,7.531 -27.25,0 -43.37,-11.109 -43.37,-29.391 v -0.718 c 0,-17.911 16.12,-27.954 36.55,-27.954 28.68,0 50.19,16.133 50.19,39.782 z m -1.08,-79.2 v 23.29 c -12.9,-15.411 -32.61,-27.239 -61.29,-27.239 -35.85,0 -67.39,20.43 -67.39,58.418 v 0.723 c 0,41.93 32.62,62.008 76.71,62.008 22.94,0 37.64,-3.231 52.33,-7.891 v 3.59 c 0,26.16 -16.48,40.492 -46.6,40.492 -21.14,0 -36.91,-4.641 -54.12,-11.82 l -11.82,34.769 c 20.79,9.321 41.22,15.77 72.04,15.77 55.91,0 83.16,-29.399 83.16,-79.93 V 374.48 h -43.02"
         style="fill:#ffffff;fill-opacity:1;fill-rule:nonzero;stroke:none"
         id="path32" /><path
         d="m 4629.78,563.711 h 43.37 v -28.672 c 12.19,16.859 28.68,32.621 57.7,32.621 27.25,0 46.25,-13.262 56.28,-33.332 15.42,20.07 35.48,33.332 64.16,33.332 41.22,0 66.31,-26.16 66.31,-72.398 V 374.48 h -43.37 V 482 c 0,30.109 -13.99,46.238 -38.36,46.238 -23.65,0 -40.49,-16.488 -40.49,-46.957 V 374.48 H 4752 v 107.879 c 0,29.391 -14.33,45.879 -38.35,45.879 -24.01,0 -40.5,-17.918 -40.5,-47.316 V 374.48 h -43.37 v 189.231"
         style="fill:#ffffff;fill-opacity:1;fill-rule:nonzero;stroke:none"
         id="path34" /><path
         d="m 5085.73,482.359 c -2.87,27.961 -19.35,49.821 -48.02,49.821 -26.53,0 -45.17,-20.43 -49.11,-49.821 z m -140.14,-13.98 v 0.711 c 0,54.14 38.35,98.57 92.47,98.57 60.21,0 90.68,-47.308 90.68,-101.789 0,-3.941 -0.35,-7.883 -0.71,-12.191 h -139.07 c 4.66,-30.828 26.52,-48.032 54.48,-48.032 21.14,0 36.2,7.891 51.26,22.59 l 25.45,-22.59 c -17.93,-21.507 -42.66,-35.476 -77.43,-35.476 -54.84,0 -97.13,39.777 -97.13,98.207"
         style="fill:#ffffff;fill-opacity:1;fill-rule:nonzero;stroke:none"
         id="path36" /><path
         d="m 5158.15,563.711 h 43.37 V 521.07 c 11.83,28.309 33.69,47.66 67.02,46.239 V 521.43 h -2.5 c -37.99,0 -64.52,-24.731 -64.52,-74.91 v -72.04 h -43.37 v 189.231"
         style="fill:#ffffff;fill-opacity:1;fill-rule:nonzero;stroke:none"
         id="path38" /><path
         d="m 5294.37,563.711 h 43.36 V 374.48 h -43.36 z m -1.8,70.258 h 46.6 v -41.207 h -46.6 v 41.207"
         style="fill:#ffffff;fill-opacity:1;fill-rule:nonzero;stroke:none"
         id="path40" /><path
         d="m 5369.64,468.02 v 0.71 c 0,53.77 41.58,98.93 98.2,98.93 35.85,0 58.07,-13.262 75.64,-32.621 l -26.89,-29.019 c -13.26,13.968 -27.23,23.652 -49.1,23.652 -31.54,0 -54.48,-27.254 -54.48,-60.211 v -0.731 c 0,-33.691 23.3,-60.921 56.63,-60.921 20.43,0 35.49,9.671 49.1,23.66 l 26.17,-25.821 c -18.63,-20.777 -40.51,-35.476 -77.42,-35.476 -56.27,0 -97.85,44.09 -97.85,97.848"
         style="fill:#ffffff;fill-opacity:1;fill-rule:nonzero;stroke:none"
         id="path42" /><path
         d="m 5687.23,453.68 c -11.11,4.308 -26.53,7.531 -43.37,7.531 -27.25,0 -43.37,-11.109 -43.37,-29.391 v -0.718 c 0,-17.911 16.12,-27.954 36.55,-27.954 28.68,0 50.19,16.133 50.19,39.782 z m -1.08,-79.2 v 23.29 c -12.9,-15.411 -32.61,-27.239 -61.29,-27.239 -35.85,0 -67.39,20.43 -67.39,58.418 v 0.723 c 0,41.93 32.62,62.008 76.71,62.008 22.94,0 37.64,-3.231 52.33,-7.891 v 3.59 c 0,26.16 -16.48,40.492 -46.6,40.492 -21.14,0 -36.91,-4.641 -54.12,-11.82 l -11.83,34.769 c 20.8,9.321 41.23,15.77 72.05,15.77 55.91,0 83.16,-29.399 83.16,-79.93 V 374.48 h -43.02"
         style="fill:#ffffff;fill-opacity:1;fill-rule:nonzero;stroke:none"
         id="path44" /><path
         d="m 5766.46,563.711 h 43.36 v -29.383 c 12.19,17.922 29.76,33.332 59.14,33.332 42.65,0 67.39,-28.672 67.39,-72.75 V 374.48 h -43.37 V 482 c 0,29.391 -14.69,46.238 -40.51,46.238 -25.08,0 -42.65,-17.57 -42.65,-46.957 V 374.48 h -43.36 v 189.231"
         style="fill:#ffffff;fill-opacity:1;fill-rule:nonzero;stroke:none"
         id="path46" /><path
         d="m 6122.39,468.02 v 0.71 c 0,33.34 -24.01,60.942 -58.06,60.942 -34.77,0 -57,-27.254 -57,-60.211 v -0.731 c 0,-32.968 24.03,-60.921 57.72,-60.921 35.12,0 57.34,27.589 57.34,60.211 z m -158.42,0 v 0.71 c 0,54.122 43.01,98.93 101.08,98.93 58.07,0 100.72,-44.082 100.72,-98.199 v -0.731 c 0,-53.761 -43.02,-98.558 -101.44,-98.558 -57.71,0 -100.36,44.09 -100.36,97.848"
         style="fill:#ffffff;fill-opacity:1;fill-rule:nonzero;stroke:none"
         id="path48" /><path
         d="m 2667.92,98.5781 v 0.7227 c 0,36.5512 -25.8,60.5702 -54.83,60.5702 -29.75,0 -54.49,-22.941 -54.49,-60.5702 V 98.5781 C 2558.6,62.0117 2583.7,38 2613.09,38 c 29.03,0 54.83,24.3789 54.83,60.5781 z m -153.04,0 v 0.7227 c 0,62.7112 42.65,98.1992 87.81,98.1992 31.19,0 50.9,-15.77 64.52,-33.34 v 101.801 h 43.37 V 4.30859 h -43.37 V 35.8516 c -13.98,-19.711 -33.69,-35.480506 -64.52,-35.480506 -44.44,0 -87.81,35.480506 -87.81,98.207006"
         style="fill:#ffffff;fill-opacity:1;fill-rule:nonzero;stroke:none"
         id="path50" /><path
         d="m 2880.14,112.191 c -2.87,27.969 -19.36,49.821 -48.03,49.821 -26.53,0 -45.17,-20.422 -49.11,-49.821 z M 2739.99,98.2188 v 0.7109 c 0,54.1293 38.35,98.5703 92.48,98.5703 60.21,0 90.68,-47.309 90.68,-101.7891 0,-3.9492 -0.36,-7.8828 -0.72,-12.1914 h -139.07 c 4.66,-30.8203 26.53,-48.0312 54.49,-48.0312 21.14,0 36.19,7.8906 51.25,22.582 l 25.45,-22.582 C 2896.63,13.9883 2871.89,0 2837.12,0 c -54.83,0 -97.13,39.7891 -97.13,98.2188"
         style="fill:#ffffff;fill-opacity:1;fill-rule:nonzero;stroke:none"
         id="path52" /><path
         d="m 3144.32,44.4609 c 52.69,0 87.1,35.4805 87.1,84.5901 v 0.711 c 0,49.109 -34.41,85.297 -87.1,85.297 h -49.46 V 44.4609 Z m -93.55,210.7501 h 93.55 c 78.86,0 133.34,-54.121 133.34,-124.742 v -0.707 c 0,-70.6214 -54.48,-125.45341 -133.34,-125.45341 h -93.55 V 255.211"
         style="fill:#ffffff;fill-opacity:1;fill-rule:nonzero;stroke:none"
         id="path54" /><path
         d="m 3441.48,112.191 c -2.86,27.969 -19.35,49.821 -48.02,49.821 -26.53,0 -45.17,-20.422 -49.11,-49.821 z M 3301.34,98.2188 v 0.7109 c 0,54.1293 38.36,98.5703 92.48,98.5703 60.21,0 90.68,-47.309 90.68,-101.7891 0,-3.9492 -0.37,-7.8828 -0.72,-12.1914 h -139.07 c 4.66,-30.8203 26.52,-48.0312 54.48,-48.0312 21.16,0 36.2,7.8906 51.25,22.582 l 25.45,-22.582 C 3457.98,13.9883 3433.24,0 3398.47,0 c -54.83,0 -97.13,39.7891 -97.13,98.2188"
         style="fill:#ffffff;fill-opacity:1;fill-rule:nonzero;stroke:none"
         id="path56" /><path
         d="m 3498.49,29.0508 19.36,29.3789 c 20.42,-15.4102 42.65,-23.2891 62,-23.2891 18.64,0 29.4,7.8789 29.4,20.4297 v 0.711 c 0,14.6992 -20.08,19.7187 -42.31,26.5273 -27.95,7.8828 -59.14,19.3514 -59.14,55.5504 v 0.731 c 0,35.828 29.76,57.691 67.39,57.691 23.66,0 49.47,-8.242 69.54,-21.5 l -17.2,-30.82 c -18.28,11.109 -37.64,17.918 -53.42,17.918 -16.83,0 -26.52,-7.879 -26.52,-19 v -0.719 c 0,-13.609 20.43,-19.359 42.65,-26.519 27.61,-8.602 58.79,-21.1527 58.79,-55.1996 v -0.7226 c 0,-39.7891 -30.83,-59.488331 -70.25,-59.488331 -26.89,0 -56.64,9.667931 -80.29,28.320331"
         style="fill:#ffffff;fill-opacity:1;fill-rule:nonzero;stroke:none"
         id="path58" /><path
         d="m 3808.54,112.191 c -2.86,27.969 -19.35,49.821 -48.02,49.821 -26.53,0 -45.16,-20.422 -49.1,-49.821 z M 3668.41,98.2188 v 0.7109 c 0,54.1293 38.35,98.5703 92.47,98.5703 60.21,0 90.68,-47.309 90.68,-101.7891 0,-3.9492 -0.36,-7.8828 -0.71,-12.1914 h -139.08 c 4.67,-30.8203 26.52,-48.0312 54.49,-48.0312 21.14,0 36.19,7.8906 51.25,22.582 l 25.45,-22.582 C 3825.04,13.9883 3800.3,0 3765.54,0 c -54.85,0 -97.13,39.7891 -97.13,98.2188"
         style="fill:#ffffff;fill-opacity:1;fill-rule:nonzero;stroke:none"
         id="path60" /><path
         d="m 3880.97,193.559 h 43.37 V 164.16 c 12.18,17.93 29.76,33.34 59.14,33.34 42.64,0 67.38,-28.672 67.38,-72.75 V 4.30859 h -43.37 V 111.84 c 0,29.39 -14.69,46.23 -40.51,46.23 -25.08,0 -42.64,-17.558 -42.64,-46.949 V 4.30859 h -43.37 V 193.559"
         style="fill:#ffffff;fill-opacity:1;fill-rule:nonzero;stroke:none"
         id="path62" /><path
         d="m 4063.8,193.559 h 46.58 l 50.9,-139.059 51.26,139.059 h 45.52 L 4180.63,2.87109 h -39.06 L 4063.8,193.559"
         style="fill:#ffffff;fill-opacity:1;fill-rule:nonzero;stroke:none"
         id="path64" /><path
         d="m 4417.93,97.8516 v 0.7265 c 0,33.3399 -24.01,60.9339 -58.07,60.9339 -34.77,0 -56.99,-27.242 -56.99,-60.2112 v -0.7227 c 0,-32.9765 24.01,-60.9375 57.71,-60.9375 35.12,0 57.35,27.5977 57.35,60.211 z m -158.43,0 v 0.7265 c 0,54.1209 43.01,98.9219 101.08,98.9219 58.06,0 100.72,-44.078 100.72,-98.1992 V 98.5781 C 4461.3,44.8086 4418.29,0 4359.86,0 4302.16,0 4259.5,44.0898 4259.5,97.8516"
         style="fill:#ffffff;fill-opacity:1;fill-rule:nonzero;stroke:none"
         id="path66" /><path
         d="m 4493.58,265.961 h 43.36 V 4.30859 h -43.36 V 265.961"
         style="fill:#ffffff;fill-opacity:1;fill-rule:nonzero;stroke:none"
         id="path68" /><path
         d="m 4561.33,193.559 h 46.59 l 50.9,-139.059 51.25,139.059 h 45.53 L 4678.17,2.87109 h -39.06 L 4561.33,193.559"
         style="fill:#ffffff;fill-opacity:1;fill-rule:nonzero;stroke:none"
         id="path70" /><path
         d="m 4780.7,193.559 h 43.37 V 4.30859 h -43.37 z m -1.78,70.25 h 46.59 V 222.59 h -46.59 v 41.219"
         style="fill:#ffffff;fill-opacity:1;fill-rule:nonzero;stroke:none"
         id="path72" /><path
         d="m 4866.38,193.559 h 43.36 v -28.668 c 12.18,16.839 28.68,32.609 57.71,32.609 27.24,0 46.23,-13.262 56.27,-33.34 15.41,20.078 35.49,33.34 64.16,33.34 41.22,0 66.31,-26.172 66.31,-72.398 V 4.30859 h -43.37 V 111.84 c 0,30.109 -13.97,46.23 -38.35,46.23 -23.65,0 -40.51,-16.48 -40.51,-46.949 V 4.30859 h -43.37 V 112.191 c 0,29.399 -14.33,45.879 -38.35,45.879 -24.01,0 -40.5,-17.91 -40.5,-47.308 V 4.30859 h -43.36 V 193.559"
         style="fill:#ffffff;fill-opacity:1;fill-rule:nonzero;stroke:none"
         id="path74" /><path
         d="m 5322.33,112.191 c -2.87,27.969 -19.35,49.821 -48.03,49.821 -26.53,0 -45.17,-20.422 -49.1,-49.821 z M 5182.18,98.2188 v 0.7109 c 0,54.1293 38.36,98.5703 92.48,98.5703 60.21,0 90.68,-47.309 90.68,-101.7891 0,-3.9492 -0.36,-7.8828 -0.72,-12.1914 h -139.06 c 4.65,-30.8203 26.52,-48.0312 54.47,-48.0312 21.15,0 36.21,7.8906 51.26,22.582 l 25.45,-22.582 C 5338.82,13.9883 5314.09,0 5279.32,0 c -54.84,0 -97.14,39.7891 -97.14,98.2188"
         style="fill:#ffffff;fill-opacity:1;fill-rule:nonzero;stroke:none"
         id="path76" /><path
         d="m 5394.75,193.559 h 43.37 V 164.16 c 12.18,17.93 29.74,33.34 59.14,33.34 42.65,0 67.38,-28.672 67.38,-72.75 V 4.30859 h -43.37 V 111.84 c 0,29.39 -14.7,46.23 -40.5,46.23 -25.1,0 -42.65,-17.558 -42.65,-46.949 V 4.30859 h -43.37 V 193.559"
         style="fill:#ffffff;fill-opacity:1;fill-rule:nonzero;stroke:none"
         id="path78" /><path
         d="m 5611.61,56.6406 v 99.6404 h -24.01 v 37.278 h 24.01 v 51.972 h 43.37 v -51.972 h 50.9 v -37.278 h -50.9 V 63.4492 c 0,-16.8476 8.6,-23.6601 23.3,-23.6601 9.68,0 18.27,2.1601 26.89,6.4609 V 10.7617 c -10.77,-6.09373 -22.95,-9.68357 -39.08,-9.68357 -31.9,0 -54.48,13.98047 -54.48,55.56247"
         style="fill:#ffffff;fill-opacity:1;fill-rule:nonzero;stroke:none"
         id="path80" /><path
         d="m 5877.94,97.8516 v 0.7265 c 0,33.3399 -24.02,60.9339 -58.07,60.9339 -34.76,0 -56.99,-27.242 -56.99,-60.2112 v -0.7227 c 0,-32.9765 24.01,-60.9375 57.72,-60.9375 35.11,0 57.34,27.5977 57.34,60.211 z m -158.43,0 v 0.7265 c 0,54.1209 43.02,98.9219 101.09,98.9219 58.05,0 100.71,-44.078 100.71,-98.1992 V 98.5781 C 5921.31,44.8086 5878.29,0 5819.87,0 5762.16,0 5719.51,44.0898 5719.51,97.8516"
         style="fill:#ffffff;fill-opacity:1;fill-rule:nonzero;stroke:none"
         id="path82" /><path
         d="m 2850.96,1782.02 v 235.55 h 263.6 c 76.75,0 168.23,-19.73 168.23,-113.98 v -3.75 c 0,-78.15 -62.93,-117.82 -186.98,-117.82 z m 321.53,-527.05 h -321.53 v 246.72 h 312.16 c 127.73,0 192.53,-40.85 192.53,-121.48 v -3.75 c 0,-80.65 -61.6,-121.49 -183.16,-121.49 z m 289.79,414.81 c 99.26,67.24 147.59,158.72 147.59,278.6 v 3.76 c 0,95.08 -31.32,172.6 -95.77,237 -79.74,79.74 -203.04,121.89 -356.55,121.89 h -628.04 l 0.06,-1349.518 h 642.92 c 324.24,0 510.25,138.298 510.25,379.448 v 3.68 c 0,155.11 -68.34,256.66 -220.46,325.14"
         style="fill:#ffffff;fill-opacity:1;fill-rule:nonzero;stroke:none"
         id="path84" /><path
         d="m 5137.59,1636.3 v -3.74 c 0,-221.38 -150.25,-370.16 -373.84,-370.16 h -201.92 v 747.67 h 201.92 c 223.59,0 373.84,-150.18 373.84,-373.77 z m -373.84,674.73 h -530.88 l 0.34,-1349.6 530.54,0.082 c 201.99,0 385.22,69.168 516.09,194.748 128.86,123.65 199.76,294.16 199.76,480.04 v 3.76 c 0,388.77 -301.1,670.97 -715.85,670.97"
         style="fill:#ffffff;fill-opacity:1;fill-rule:nonzero;stroke:none"
         id="path86" /><path
         d="m 3937.96,2313.19 c 90.84,0 164.55,-73.63 164.55,-164.47 V 961.23 h -328.96 v 1352 l 164.41,-0.04"
         style="fill:#ffffff;fill-opacity:1;fill-rule:nonzero;stroke:none"
         id="path88" /><path
         d="m 1603.49,1823.51 c -47.09,1.95 -55.5,-26.47 15.19,-41.42 99.84,-21.08 31.87,39.45 -15.19,41.42 z m -147.71,110.87 c -141.53,45.84 -48.4,-67.42 18.95,-74.92 67.29,-7.44 81.32,42.43 -18.95,74.92 z m -416.73,102.49 c -41.253,-21.65 32.57,-117.48 221.38,-122.61 188.89,-5.22 -54.59,210.2 -221.38,122.61 z m 362.9,-1387.12 c 59.38,110.488 188.69,271.59 465.13,596.38 413.41,485.77 -811.65,322.64 -1021.584,690.27 -172.898,302.91 470.564,520.62 859.384,689.15 252.76,-166.59 436.16,-436.03 483.38,-759.16 C 2269.1,1314.32 1924.53,798.352 1401.95,649.75 Z m -245.9,782.98 c -173.472,-280.89 383.82,-285.13 125.98,-809.98 -7.57,-1.262 -15.07,-2.719 -22.78,-3.828 C 658.227,530.93 99.7031,946.828 11.6992,1547.85 -29.9609,1832.86 41.7734,2108.26 192.605,2328.48 164.551,1694.25 1318.07,1694.95 1156.05,1432.73"
         style="fill:#ffffff;fill-opacity:1;fill-rule:nonzero;stroke:none"
         id="path90" /></g></g></svg>
